<svg xmlns="http://www.w3.org/2000/svg" xmlns:xlink="http://www.w3.org/1999/xlink" width="500" zoomAndPan="magnify" viewBox="0 0 375 374.999991" height="500" preserveAspectRatio="xMidYMid meet" version="1.0"><defs><g/><clipPath id="8df022851a"><path d="M 273 153.769531 L 309 153.769531 L 309 219.769531 L 273 219.769531 Z M 273 153.769531 " clip-rule="nonzero"/></clipPath><clipPath id="05f611b49f"><path d="M 139.300781 167.484375 L 228.550781 167.484375 L 228.550781 186.984375 L 139.300781 186.984375 Z M 139.300781 167.484375 " clip-rule="nonzero"/></clipPath><clipPath id="5d50305cc2"><path d="M 37.78125 240 L 86 240 L 86 248.546875 L 37.78125 248.546875 Z M 37.78125 240 " clip-rule="nonzero"/></clipPath><clipPath id="9081358f6f"><path d="M 37.78125 242 L 86 242 L 86 248.546875 L 37.78125 248.546875 Z M 37.78125 242 " clip-rule="nonzero"/></clipPath></defs><g clip-path="url(#8df022851a)"><path fill="#000000" d="M 307.757812 167.039062 L 302.65625 167.039062 C 302.5 167.039062 302.351562 167.070312 302.207031 167.128906 C 302.0625 167.1875 301.933594 167.273438 301.824219 167.382812 C 301.710938 167.492188 301.628906 167.621094 301.566406 167.765625 C 301.507812 167.90625 301.476562 168.058594 301.476562 168.210938 L 301.476562 171.171875 L 299.140625 171.171875 L 298.652344 162.117188 C 298.644531 161.96875 298.605469 161.824219 298.542969 161.6875 C 298.480469 161.550781 298.394531 161.433594 298.285156 161.328125 C 298.175781 161.226562 298.050781 161.144531 297.910156 161.089844 C 297.769531 161.035156 297.625 161.007812 297.472656 161.007812 L 295.929688 161.007812 L 295.929688 157.371094 C 295.929688 157.214844 295.898438 157.066406 295.839844 156.921875 C 295.78125 156.777344 295.695312 156.652344 295.585938 156.539062 C 295.472656 156.429688 295.347656 156.347656 295.203125 156.285156 C 295.058594 156.226562 294.90625 156.195312 294.75 156.195312 C 294.59375 156.195312 294.445312 156.226562 294.300781 156.285156 C 294.15625 156.347656 294.03125 156.429688 293.917969 156.539062 C 293.808594 156.652344 293.722656 156.777344 293.664062 156.921875 C 293.605469 157.066406 293.574219 157.214844 293.574219 157.371094 L 293.574219 161.007812 L 289.0625 161.007812 L 289.0625 155.089844 C 289.0625 154.933594 289.03125 154.785156 288.972656 154.640625 C 288.914062 154.496094 288.828125 154.371094 288.71875 154.261719 C 288.605469 154.148438 288.480469 154.066406 288.335938 154.003906 C 288.191406 153.945312 288.039062 153.917969 287.882812 153.917969 C 287.726562 153.917969 287.578125 153.945312 287.433594 154.003906 C 287.289062 154.066406 287.160156 154.148438 287.050781 154.261719 C 286.941406 154.371094 286.855469 154.496094 286.796875 154.640625 C 286.734375 154.785156 286.707031 154.933594 286.707031 155.089844 L 286.707031 161.007812 L 285.164062 161.007812 C 285.011719 161.007812 284.867188 161.035156 284.726562 161.089844 C 284.585938 161.144531 284.460938 161.226562 284.351562 161.328125 C 284.242188 161.433594 284.15625 161.550781 284.09375 161.6875 C 284.027344 161.824219 283.992188 161.96875 283.984375 162.117188 L 283.496094 171.171875 L 281.160156 171.171875 L 281.160156 168.210938 C 281.160156 168.058594 281.128906 167.90625 281.070312 167.765625 C 281.011719 167.621094 280.925781 167.492188 280.816406 167.382812 C 280.703125 167.273438 280.578125 167.1875 280.433594 167.128906 C 280.289062 167.070312 280.136719 167.039062 279.980469 167.039062 L 274.878906 167.039062 C 274.722656 167.039062 274.574219 167.070312 274.429688 167.128906 C 274.285156 167.1875 274.15625 167.273438 274.046875 167.382812 C 273.9375 167.492188 273.851562 167.621094 273.792969 167.765625 C 273.730469 167.90625 273.703125 168.058594 273.703125 168.210938 L 273.703125 176.476562 C 273.703125 176.632812 273.730469 176.78125 273.792969 176.925781 C 273.851562 177.070312 273.9375 177.195312 274.046875 177.304688 C 274.15625 177.414062 274.285156 177.5 274.429688 177.558594 C 274.574219 177.621094 274.722656 177.648438 274.878906 177.648438 L 279.980469 177.648438 C 280.136719 177.648438 280.289062 177.621094 280.433594 177.558594 C 280.578125 177.5 280.703125 177.414062 280.816406 177.304688 C 280.925781 177.195312 281.011719 177.070312 281.070312 176.925781 C 281.128906 176.78125 281.160156 176.632812 281.160156 176.476562 L 281.160156 173.519531 L 283.375 173.519531 L 283.089844 178.808594 C 283.085938 179.058594 283.152344 179.285156 283.289062 179.492188 C 283.425781 179.703125 283.609375 179.855469 283.835938 179.953125 C 284.066406 180.050781 284.304688 180.078125 284.550781 180.035156 C 284.792969 179.988281 285.007812 179.878906 285.1875 179.707031 L 291.320312 173.597656 L 297.226562 179.480469 L 297.5625 185.730469 L 291.320312 191.949219 L 284.703125 185.359375 C 284.535156 185.203125 284.339844 185.105469 284.117188 185.0625 C 283.890625 185.015625 283.671875 185.035156 283.457031 185.117188 C 283.246094 185.199219 283.070312 185.332031 282.929688 185.511719 C 282.792969 185.695312 282.714844 185.898438 282.695312 186.125 L 281.753906 203.5625 L 279.226562 203.5625 C 278.757812 203.5625 278.304688 203.652344 277.875 203.832031 C 277.441406 204.011719 277.058594 204.265625 276.726562 204.59375 C 276.394531 204.925781 276.140625 205.304688 275.960938 205.738281 C 275.78125 206.167969 275.691406 206.617188 275.691406 207.085938 L 275.691406 218.445312 C 275.691406 218.601562 275.722656 218.75 275.78125 218.894531 C 275.839844 219.039062 275.925781 219.164062 276.035156 219.277344 C 276.148438 219.386719 276.273438 219.46875 276.417969 219.53125 C 276.5625 219.589844 276.714844 219.621094 276.871094 219.621094 L 305.769531 219.621094 C 305.925781 219.621094 306.074219 219.589844 306.21875 219.53125 C 306.363281 219.46875 306.492188 219.386719 306.601562 219.277344 C 306.710938 219.164062 306.796875 219.039062 306.855469 218.894531 C 306.917969 218.75 306.945312 218.601562 306.945312 218.445312 L 306.945312 213.9375 C 306.945312 213.78125 306.917969 213.632812 306.855469 213.488281 C 306.796875 213.347656 306.710938 213.21875 306.601562 213.109375 C 306.492188 213 306.363281 212.914062 306.21875 212.855469 C 306.074219 212.796875 305.925781 212.765625 305.769531 212.765625 C 305.613281 212.765625 305.460938 212.796875 305.316406 212.855469 C 305.171875 212.914062 305.046875 213 304.9375 213.109375 C 304.824219 213.21875 304.738281 213.347656 304.679688 213.488281 C 304.621094 213.632812 304.589844 213.78125 304.589844 213.9375 L 304.589844 217.273438 L 299.367188 217.273438 L 299.367188 213.871094 C 299.367188 213.714844 299.335938 213.566406 299.277344 213.421875 C 299.21875 213.277344 299.132812 213.152344 299.023438 213.039062 C 298.910156 212.929688 298.785156 212.847656 298.640625 212.785156 C 298.496094 212.726562 298.34375 212.695312 298.1875 212.695312 C 298.03125 212.695312 297.882812 212.726562 297.738281 212.785156 C 297.59375 212.847656 297.464844 212.929688 297.355469 213.039062 C 297.246094 213.152344 297.160156 213.277344 297.101562 213.421875 C 297.042969 213.566406 297.011719 213.714844 297.011719 213.871094 L 297.011719 217.273438 L 285.628906 217.273438 L 285.628906 213.871094 C 285.628906 213.714844 285.597656 213.566406 285.539062 213.421875 C 285.476562 213.277344 285.390625 213.152344 285.28125 213.039062 C 285.171875 212.929688 285.042969 212.847656 284.898438 212.785156 C 284.753906 212.726562 284.605469 212.695312 284.449219 212.695312 C 284.292969 212.695312 284.140625 212.726562 284 212.785156 C 283.855469 212.847656 283.726562 212.929688 283.617188 213.039062 C 283.503906 213.152344 283.421875 213.277344 283.359375 213.421875 C 283.300781 213.566406 283.269531 213.714844 283.269531 213.871094 L 283.269531 217.273438 L 278.046875 217.273438 L 278.046875 207.085938 C 278.046875 206.929688 278.078125 206.777344 278.136719 206.636719 C 278.195312 206.492188 278.28125 206.363281 278.394531 206.253906 C 278.503906 206.144531 278.628906 206.058594 278.773438 206 C 278.917969 205.941406 279.070312 205.910156 279.226562 205.910156 L 303.414062 205.910156 C 303.570312 205.910156 303.71875 205.941406 303.863281 206 C 304.007812 206.058594 304.136719 206.144531 304.246094 206.253906 C 304.355469 206.363281 304.441406 206.492188 304.5 206.636719 C 304.5625 206.777344 304.589844 206.929688 304.589844 207.085938 C 304.589844 207.238281 304.621094 207.390625 304.679688 207.535156 C 304.738281 207.675781 304.824219 207.804688 304.9375 207.914062 C 305.046875 208.023438 305.171875 208.109375 305.316406 208.167969 C 305.460938 208.226562 305.613281 208.257812 305.769531 208.257812 C 305.925781 208.257812 306.074219 208.226562 306.21875 208.167969 C 306.363281 208.109375 306.492188 208.023438 306.601562 207.914062 C 306.710938 207.804688 306.796875 207.675781 306.855469 207.535156 C 306.917969 207.390625 306.945312 207.238281 306.945312 207.085938 C 306.945312 206.617188 306.855469 206.167969 306.675781 205.738281 C 306.5 205.304688 306.242188 204.925781 305.910156 204.59375 C 305.582031 204.265625 305.199219 204.011719 304.765625 203.832031 C 304.332031 203.652344 303.882812 203.5625 303.414062 203.5625 L 300.882812 203.5625 L 299.265625 173.519531 L 301.476562 173.519531 L 301.476562 176.476562 C 301.476562 176.632812 301.507812 176.78125 301.566406 176.925781 C 301.628906 177.070312 301.710938 177.195312 301.824219 177.304688 C 301.933594 177.414062 302.0625 177.5 302.207031 177.558594 C 302.351562 177.621094 302.5 177.648438 302.65625 177.648438 L 307.757812 177.648438 C 307.914062 177.648438 308.066406 177.621094 308.210938 177.558594 C 308.351562 177.5 308.480469 177.414062 308.589844 177.304688 C 308.703125 177.195312 308.785156 177.070312 308.847656 176.925781 C 308.90625 176.78125 308.9375 176.632812 308.9375 176.476562 L 308.9375 168.210938 C 308.9375 168.058594 308.90625 167.90625 308.847656 167.765625 C 308.785156 167.621094 308.703125 167.492188 308.589844 167.382812 C 308.480469 167.273438 308.351562 167.1875 308.210938 167.128906 C 308.066406 167.070312 307.914062 167.039062 307.757812 167.039062 Z M 278.804688 175.304688 L 276.058594 175.304688 L 276.058594 169.386719 L 278.804688 169.386719 Z M 296.355469 163.355469 L 296.453125 165.164062 L 291.320312 170.28125 L 286.183594 165.164062 L 286.28125 163.355469 Z M 285.601562 175.972656 L 286.011719 168.3125 L 289.652344 171.9375 Z M 292.984375 171.9375 L 296.625 168.3125 L 297.039062 175.972656 Z M 297.730469 188.878906 L 298.269531 198.871094 L 292.984375 193.609375 Z M 284.90625 188.878906 L 289.652344 193.609375 L 284.367188 198.871094 Z M 284.117188 203.566406 L 284.179688 202.378906 L 291.320312 195.265625 L 298.457031 202.378906 L 298.523438 203.5625 Z M 306.582031 175.304688 L 303.835938 175.304688 L 303.835938 169.386719 L 306.582031 169.386719 Z M 306.582031 175.304688 " fill-opacity="1" fill-rule="nonzero"/></g><path fill="#000000" d="M 320.367188 163.890625 C 320.257812 163.78125 320.128906 163.699219 319.988281 163.644531 C 319.84375 163.585938 319.695312 163.558594 319.539062 163.558594 C 319.386719 163.5625 319.238281 163.589844 319.09375 163.652344 C 318.953125 163.710938 318.828125 163.792969 318.71875 163.902344 C 318.609375 164.011719 318.523438 164.136719 318.464844 164.28125 C 318.40625 164.421875 318.375 164.570312 318.371094 164.722656 C 318.371094 164.875 318.398438 165.023438 318.457031 165.167969 C 318.511719 165.3125 318.597656 165.4375 318.703125 165.546875 C 319.152344 165.996094 319.550781 166.480469 319.902344 167.003906 C 320.253906 167.53125 320.550781 168.085938 320.792969 168.667969 C 321.035156 169.25 321.21875 169.851562 321.339844 170.46875 C 321.464844 171.089844 321.527344 171.714844 321.527344 172.34375 C 321.527344 172.976562 321.464844 173.601562 321.339844 174.21875 C 321.21875 174.839844 321.035156 175.441406 320.792969 176.023438 C 320.550781 176.605469 320.253906 177.160156 319.902344 177.683594 C 319.550781 178.210938 319.152344 178.695312 318.703125 179.140625 C 318.589844 179.25 318.5 179.378906 318.4375 179.523438 C 318.375 179.667969 318.34375 179.816406 318.34375 179.976562 C 318.34375 180.132812 318.371094 180.285156 318.429688 180.429688 C 318.492188 180.574219 318.578125 180.703125 318.6875 180.816406 C 318.800781 180.925781 318.929688 181.011719 319.074219 181.070312 C 319.222656 181.132812 319.375 181.160156 319.53125 181.160156 C 319.691406 181.15625 319.839844 181.125 319.988281 181.0625 C 320.132812 181 320.257812 180.914062 320.367188 180.800781 C 320.925781 180.246094 321.421875 179.640625 321.859375 178.988281 C 322.296875 178.335938 322.667969 177.644531 322.96875 176.921875 C 323.269531 176.195312 323.496094 175.449219 323.652344 174.675781 C 323.804688 173.90625 323.882812 173.128906 323.882812 172.34375 C 323.882812 171.558594 323.804688 170.78125 323.652344 170.011719 C 323.496094 169.242188 323.269531 168.496094 322.96875 167.769531 C 322.667969 167.042969 322.296875 166.355469 321.859375 165.703125 C 321.421875 165.050781 320.925781 164.445312 320.367188 163.890625 Z M 320.367188 163.890625 " fill-opacity="1" fill-rule="nonzero"/><path fill="#000000" d="M 317.023438 166.203125 C 316.914062 166.089844 316.785156 166.003906 316.640625 165.941406 C 316.496094 165.878906 316.34375 165.847656 316.183594 165.847656 C 316.027344 165.84375 315.875 165.875 315.730469 165.933594 C 315.582031 165.992188 315.453125 166.078125 315.34375 166.191406 C 315.230469 166.300781 315.144531 166.429688 315.085938 166.574219 C 315.023438 166.71875 314.996094 166.871094 314.996094 167.03125 C 315 167.1875 315.03125 167.335938 315.09375 167.480469 C 315.15625 167.625 315.242188 167.753906 315.355469 167.863281 C 315.652344 168.15625 315.914062 168.476562 316.144531 168.824219 C 316.378906 169.167969 316.574219 169.535156 316.734375 169.917969 C 316.894531 170.304688 317.011719 170.699219 317.09375 171.109375 C 317.175781 171.515625 317.21875 171.929688 317.21875 172.34375 C 317.21875 172.757812 317.175781 173.171875 317.09375 173.578125 C 317.011719 173.988281 316.894531 174.382812 316.734375 174.769531 C 316.574219 175.152344 316.378906 175.519531 316.144531 175.863281 C 315.914062 176.210938 315.652344 176.53125 315.355469 176.824219 C 315.242188 176.933594 315.15625 177.0625 315.09375 177.207031 C 315.03125 177.351562 315 177.5 314.996094 177.65625 C 314.996094 177.816406 315.023438 177.96875 315.085938 178.113281 C 315.144531 178.257812 315.230469 178.386719 315.34375 178.496094 C 315.453125 178.609375 315.582031 178.695312 315.730469 178.753906 C 315.875 178.8125 316.027344 178.84375 316.183594 178.839844 C 316.34375 178.839844 316.496094 178.808594 316.640625 178.746094 C 316.785156 178.683594 316.914062 178.597656 317.023438 178.484375 C 317.425781 178.078125 317.789062 177.640625 318.105469 177.167969 C 318.421875 176.691406 318.691406 176.191406 318.910156 175.664062 C 319.128906 175.140625 319.292969 174.597656 319.40625 174.039062 C 319.515625 173.476562 319.570312 172.914062 319.570312 172.34375 C 319.570312 171.773438 319.515625 171.210938 319.40625 170.648438 C 319.292969 170.089844 319.128906 169.546875 318.910156 169.023438 C 318.691406 168.496094 318.421875 167.996094 318.105469 167.519531 C 317.789062 167.046875 317.425781 166.609375 317.023438 166.203125 Z M 317.023438 166.203125 " fill-opacity="1" fill-rule="nonzero"/><path fill="#000000" d="M 313.675781 168.519531 C 313.566406 168.410156 313.4375 168.324219 313.292969 168.265625 C 313.148438 168.207031 313 168.175781 312.84375 168.175781 C 312.6875 168.175781 312.535156 168.207031 312.394531 168.265625 C 312.25 168.324219 312.121094 168.410156 312.011719 168.519531 C 311.898438 168.628906 311.816406 168.757812 311.753906 168.898438 C 311.695312 169.042969 311.664062 169.195312 311.664062 169.347656 C 311.664062 169.503906 311.695312 169.65625 311.753906 169.796875 C 311.8125 169.941406 311.898438 170.070312 312.007812 170.179688 C 312.296875 170.464844 312.519531 170.796875 312.675781 171.171875 C 312.832031 171.546875 312.910156 171.9375 312.910156 172.34375 C 312.910156 172.75 312.832031 173.140625 312.675781 173.515625 C 312.519531 173.890625 312.296875 174.222656 312.007812 174.507812 C 311.898438 174.621094 311.8125 174.746094 311.753906 174.890625 C 311.695312 175.035156 311.664062 175.183594 311.664062 175.339844 C 311.664062 175.496094 311.695312 175.644531 311.753906 175.789062 C 311.816406 175.933594 311.898438 176.058594 312.011719 176.167969 C 312.121094 176.277344 312.25 176.363281 312.394531 176.421875 C 312.535156 176.484375 312.6875 176.511719 312.84375 176.511719 C 313 176.511719 313.148438 176.484375 313.292969 176.421875 C 313.4375 176.363281 313.566406 176.277344 313.675781 176.167969 C 313.929688 175.917969 314.152344 175.644531 314.351562 175.347656 C 314.546875 175.054688 314.714844 174.742188 314.851562 174.414062 C 314.988281 174.085938 315.089844 173.746094 315.160156 173.398438 C 315.230469 173.050781 315.265625 172.699219 315.265625 172.34375 C 315.265625 171.988281 315.230469 171.636719 315.160156 171.289062 C 315.089844 170.941406 314.988281 170.601562 314.851562 170.273438 C 314.714844 169.945312 314.546875 169.636719 314.351562 169.339844 C 314.152344 169.042969 313.929688 168.769531 313.675781 168.519531 Z M 313.675781 168.519531 " fill-opacity="1" fill-rule="nonzero"/><path fill="#000000" d="M 263.933594 165.546875 C 264.042969 165.4375 264.125 165.3125 264.183594 165.167969 C 264.238281 165.023438 264.265625 164.875 264.265625 164.722656 C 264.265625 164.570312 264.234375 164.421875 264.175781 164.28125 C 264.113281 164.136719 264.03125 164.011719 263.921875 163.902344 C 263.8125 163.792969 263.6875 163.710938 263.542969 163.652344 C 263.402344 163.589844 263.253906 163.5625 263.097656 163.558594 C 262.945312 163.558594 262.792969 163.585938 262.652344 163.644531 C 262.507812 163.699219 262.378906 163.78125 262.269531 163.890625 C 261.710938 164.445312 261.214844 165.050781 260.777344 165.703125 C 260.339844 166.355469 259.972656 167.042969 259.667969 167.769531 C 259.367188 168.496094 259.140625 169.242188 258.988281 170.011719 C 258.832031 170.78125 258.757812 171.558594 258.757812 172.34375 C 258.757812 173.128906 258.832031 173.90625 258.988281 174.675781 C 259.140625 175.449219 259.367188 176.195312 259.667969 176.921875 C 259.972656 177.644531 260.339844 178.335938 260.777344 178.988281 C 261.214844 179.640625 261.710938 180.246094 262.269531 180.800781 C 262.378906 180.914062 262.507812 181 262.652344 181.0625 C 262.796875 181.125 262.949219 181.15625 263.105469 181.160156 C 263.265625 181.160156 263.417969 181.132812 263.5625 181.070312 C 263.710938 181.011719 263.839844 180.925781 263.949219 180.816406 C 264.0625 180.703125 264.148438 180.574219 264.207031 180.429688 C 264.265625 180.285156 264.296875 180.132812 264.292969 179.976562 C 264.292969 179.816406 264.261719 179.667969 264.199219 179.523438 C 264.136719 179.378906 264.046875 179.25 263.933594 179.140625 C 263.488281 178.695312 263.089844 178.210938 262.738281 177.683594 C 262.382812 177.160156 262.085938 176.605469 261.84375 176.023438 C 261.601562 175.441406 261.421875 174.839844 261.296875 174.21875 C 261.171875 173.601562 261.113281 172.976562 261.113281 172.34375 C 261.113281 171.714844 261.171875 171.089844 261.296875 170.46875 C 261.421875 169.851562 261.601562 169.25 261.84375 168.667969 C 262.085938 168.085938 262.382812 167.53125 262.738281 167.003906 C 263.089844 166.480469 263.488281 165.996094 263.933594 165.546875 Z M 263.933594 165.546875 " fill-opacity="1" fill-rule="nonzero"/><path fill="#000000" d="M 267.289062 167.863281 C 267.402344 167.753906 267.488281 167.625 267.550781 167.480469 C 267.613281 167.335938 267.644531 167.1875 267.648438 167.03125 C 267.648438 166.871094 267.621094 166.71875 267.558594 166.574219 C 267.5 166.429688 267.414062 166.300781 267.300781 166.191406 C 267.191406 166.078125 267.0625 165.992188 266.914062 165.933594 C 266.769531 165.875 266.617188 165.84375 266.460938 165.847656 C 266.300781 165.847656 266.148438 165.878906 266.003906 165.941406 C 265.859375 166.003906 265.730469 166.089844 265.621094 166.203125 C 265.21875 166.609375 264.855469 167.046875 264.539062 167.519531 C 264.222656 167.996094 263.953125 168.496094 263.734375 169.023438 C 263.515625 169.546875 263.351562 170.089844 263.238281 170.648438 C 263.128906 171.210938 263.070312 171.773438 263.070312 172.34375 C 263.070312 172.914062 263.128906 173.476562 263.238281 174.039062 C 263.351562 174.597656 263.515625 175.140625 263.734375 175.664062 C 263.953125 176.191406 264.222656 176.691406 264.539062 177.167969 C 264.855469 177.640625 265.21875 178.078125 265.621094 178.484375 C 265.734375 178.589844 265.859375 178.671875 266.003906 178.730469 C 266.148438 178.785156 266.296875 178.8125 266.449219 178.8125 C 266.605469 178.8125 266.753906 178.78125 266.894531 178.722656 C 267.039062 178.660156 267.164062 178.578125 267.273438 178.46875 C 267.382812 178.359375 267.46875 178.234375 267.527344 178.09375 C 267.585938 177.953125 267.617188 177.804688 267.617188 177.648438 C 267.621094 177.496094 267.589844 177.347656 267.535156 177.203125 C 267.476562 177.0625 267.394531 176.933594 267.289062 176.824219 C 266.992188 176.53125 266.730469 176.210938 266.496094 175.863281 C 266.265625 175.519531 266.070312 175.152344 265.910156 174.769531 C 265.75 174.382812 265.628906 173.988281 265.550781 173.578125 C 265.46875 173.171875 265.425781 172.757812 265.425781 172.34375 C 265.425781 171.929688 265.46875 171.515625 265.550781 171.109375 C 265.628906 170.699219 265.75 170.304688 265.910156 169.917969 C 266.070312 169.535156 266.265625 169.167969 266.496094 168.824219 C 266.730469 168.476562 266.992188 168.15625 267.289062 167.863281 Z M 267.289062 167.863281 " fill-opacity="1" fill-rule="nonzero"/><path fill="#000000" d="M 270.628906 168.519531 C 270.519531 168.410156 270.390625 168.324219 270.246094 168.265625 C 270.101562 168.207031 269.953125 168.175781 269.796875 168.175781 C 269.640625 168.175781 269.488281 168.207031 269.34375 168.265625 C 269.199219 168.324219 269.070312 168.410156 268.960938 168.519531 C 268.710938 168.769531 268.484375 169.042969 268.289062 169.339844 C 268.089844 169.636719 267.921875 169.945312 267.785156 170.273438 C 267.648438 170.601562 267.546875 170.941406 267.476562 171.289062 C 267.410156 171.636719 267.375 171.988281 267.375 172.34375 C 267.375 172.699219 267.410156 173.050781 267.476562 173.398438 C 267.546875 173.746094 267.648438 174.085938 267.785156 174.414062 C 267.921875 174.742188 268.089844 175.054688 268.289062 175.347656 C 268.484375 175.644531 268.710938 175.917969 268.960938 176.167969 C 269.070312 176.277344 269.199219 176.363281 269.34375 176.421875 C 269.488281 176.484375 269.636719 176.511719 269.792969 176.511719 C 269.949219 176.511719 270.101562 176.484375 270.246094 176.421875 C 270.390625 176.363281 270.515625 176.277344 270.628906 176.167969 C 270.738281 176.058594 270.824219 175.933594 270.882812 175.789062 C 270.945312 175.644531 270.972656 175.496094 270.972656 175.339844 C 270.972656 175.183594 270.945312 175.035156 270.882812 174.890625 C 270.824219 174.746094 270.738281 174.621094 270.628906 174.507812 C 270.339844 174.222656 270.117188 173.890625 269.960938 173.515625 C 269.808594 173.140625 269.730469 172.75 269.730469 172.34375 C 269.730469 171.9375 269.808594 171.546875 269.960938 171.171875 C 270.117188 170.796875 270.339844 170.464844 270.628906 170.179688 C 270.738281 170.070312 270.824219 169.941406 270.882812 169.796875 C 270.945312 169.65625 270.972656 169.503906 270.972656 169.347656 C 270.972656 169.195312 270.945312 169.042969 270.882812 168.902344 C 270.824219 168.757812 270.738281 168.628906 270.628906 168.519531 Z M 270.628906 168.519531 " fill-opacity="1" fill-rule="nonzero"/><g clip-path="url(#05f611b49f)"><path fill="#000000" d="M 186.226562 167.652344 L 135.859375 193.386719 C 134.011719 194.332031 133.953125 196.339844 135.699219 197.480469 L 135.699219 197.476562 C 136.386719 197.882812 137.128906 198.082031 137.929688 198.066406 L 234.527344 198.066406 C 237.976562 198.066406 239.265625 194.75 236.597656 193.386719 Z M 179.875 150.199219 C 179.863281 152.78125 175.910156 152.8125 175.925781 150.148438 C 175.953125 144.515625 181.90625 140.523438 186.21875 140.777344 C 190.902344 140.863281 194.144531 143.429688 195.730469 146.769531 C 198.59375 152.777344 195.839844 160.515625 188.210938 162.035156 L 188.210938 164.242188 L 238.394531 189.882812 C 244.789062 193.148438 242.101562 202.015625 234.527344 202.015625 L 137.929688 202.015625 C 136.367188 202.027344 134.921875 201.625 133.59375 200.808594 L 133.59375 200.804688 C 129.347656 198.148438 129.371094 192.28125 134.0625 189.882812 C 150.789062 181.339844 167.519531 172.792969 184.246094 164.246094 L 184.246094 160.308594 L 184.25 160.308594 C 184.25 160.058594 184.296875 159.820312 184.386719 159.585938 C 184.480469 159.355469 184.613281 159.144531 184.785156 158.964844 C 184.953125 158.78125 185.152344 158.636719 185.378906 158.527344 C 185.605469 158.421875 185.847656 158.359375 186.097656 158.34375 C 195.773438 157.695312 194.523438 144.722656 186.019531 144.722656 C 183.390625 144.722656 179.890625 147.085938 179.875 150.199219 Z M 179.875 150.199219 " fill-opacity="1" fill-rule="nonzero"/></g><path fill="#d9d9d9" d="M 64.691406 228.683594 L 75.050781 228.683594 L 75.050781 175.9375 L 64.691406 175.9375 L 64.691406 228.683594 " fill-opacity="1" fill-rule="nonzero"/><path stroke-linecap="round" transform="matrix(-0.062982, 0, 0, -0.0632062, 253.021629, 314.535447)" fill="none" stroke-linejoin="round" d="M 2990.222371 1358.281815 L 2825.740885 1358.281815 L 2825.740885 2192.789831 L 2990.222371 2192.789831 Z M 2990.222371 1358.281815 " stroke="#181821" stroke-width="28" stroke-opacity="1" stroke-miterlimit="10"/><path fill="#d9d9d9" d="M 51.546875 241.609375 L 80.855469 241.609375 L 80.855469 219.546875 L 51.546875 219.546875 L 51.546875 241.609375 " fill-opacity="1" fill-rule="nonzero"/><path stroke-linecap="round" transform="matrix(-0.062982, 0, 0, -0.0632062, 253.021629, 314.535447)" fill="none" stroke-linejoin="round" d="M 3198.925312 1153.780073 L 2733.576675 1153.780073 L 2733.576675 1502.835933 L 3198.925312 1502.835933 Z M 3198.925312 1153.780073 " stroke="#181821" stroke-width="28" stroke-opacity="1" stroke-miterlimit="10"/><path fill="#d9d9d9" d="M 57.609375 219.546875 L 57.609375 237.550781 L 80.855469 237.550781 L 80.855469 241.609375 L 43.8125 241.609375 L 43.8125 219.546875 L 57.609375 219.546875 " fill-opacity="1" fill-rule="nonzero"/><path stroke-linecap="round" transform="matrix(-0.062982, 0, 0, -0.0632062, 253.021629, 314.535447)" fill="none" stroke-linejoin="round" d="M 3102.66767 1502.835933 L 3102.66767 1217.992013 L 2733.576675 1217.992013 L 2733.576675 1153.780073 L 3321.728231 1153.780073 L 3321.728231 1502.835933 Z M 3102.66767 1502.835933 " stroke="#181821" stroke-width="28" stroke-opacity="1" stroke-miterlimit="10"/><path stroke-linecap="round" transform="matrix(-0.062982, 0, 0, -0.0632062, 253.021629, 314.535447)" fill="none" stroke-linejoin="round" d="M 2825.740885 1562.907161 L 2922.990874 1643.125735 L 2922.990874 2104.537039 L 2990.222371 2144.646326 " stroke="#181821" stroke-width="28" stroke-opacity="1" stroke-miterlimit="10"/><path fill="#d9d9d9" d="M 60.386719 226.644531 C 60.386719 231.96875 64.6875 236.28125 69.992188 236.28125 C 75.292969 236.28125 79.59375 231.96875 79.59375 226.644531 C 79.59375 221.324219 75.292969 217.007812 69.992188 217.007812 C 64.6875 217.007812 60.386719 221.324219 60.386719 226.644531 " fill-opacity="1" fill-rule="nonzero"/><path stroke-linecap="round" transform="matrix(-0.062982, 0, 0, -0.0632062, 253.021629, 314.535447)" fill="none" stroke-linejoin="round" d="M 3058.570258 1390.542289 C 3058.570258 1306.306607 2990.284393 1238.077558 2906.058956 1238.077558 C 2821.895542 1238.077558 2753.609676 1306.306607 2753.609676 1390.542289 C 2753.609676 1474.716171 2821.895542 1543.007021 2906.058956 1543.007021 C 2990.284393 1543.007021 3058.570258 1474.716171 3058.570258 1390.542289 Z M 3058.570258 1390.542289 " stroke="#181821" stroke-width="28" stroke-opacity="1" stroke-miterlimit="10"/><path fill="#d9d9d9" d="M 73.253906 232.316406 L 76.511719 226.644531 L 73.253906 220.980469 L 66.730469 220.980469 L 63.46875 226.644531 L 66.730469 232.316406 L 73.253906 232.316406 " fill-opacity="1" fill-rule="nonzero"/><path stroke-linecap="round" transform="matrix(-0.062982, 0, 0, -0.0632062, 253.021629, 314.535447)" fill="none" stroke-linejoin="round" d="M 2854.270857 1300.806258 L 2802.544779 1390.542289 L 2854.270857 1480.154718 L 2957.847056 1480.154718 L 3009.635156 1390.542289 L 2957.847056 1300.806258 Z M 2854.270857 1300.806258 " stroke="#181821" stroke-width="28" stroke-opacity="1" stroke-miterlimit="10"/><path fill="#d9d9d9" d="M 38.78125 247.695312 L 84.125 247.695312 L 84.125 241.609375 L 38.78125 241.609375 L 38.78125 247.695312 " fill-opacity="1" fill-rule="nonzero"/><g clip-path="url(#5d50305cc2)"><path stroke-linecap="round" transform="matrix(-0.062982, 0, 0, -0.0632062, 253.021629, 314.535447)" fill="none" stroke-linejoin="round" d="M 3401.61215 1057.493064 L 2681.664532 1057.493064 L 2681.664532 1153.780073 L 3401.61215 1153.780073 Z M 3401.61215 1057.493064 " stroke="#181821" stroke-width="28" stroke-opacity="1" stroke-miterlimit="10"/></g><path fill="#d9d9d9" d="M 84.125 243.636719 L 84.125 247.695312 L 38.78125 247.695312 L 38.78125 243.636719 L 84.125 243.636719 " fill-opacity="1" fill-rule="nonzero"/><g clip-path="url(#9081358f6f)"><path stroke-linecap="round" transform="matrix(-0.062982, 0, 0, -0.0632062, 253.021629, 314.535447)" fill="none" stroke-linejoin="round" d="M 2681.664532 1057.493064 L 3401.61215 1057.493064 L 3401.61215 1121.705004 L 2681.664532 1121.705004 Z M 2681.664532 1057.493064 " stroke="#181821" stroke-width="28" stroke-opacity="1" stroke-miterlimit="10"/></g><path fill="#d9d9d9" d="M 41.226562 217.007812 L 43.8125 217.007812 L 43.8125 241.609375 L 41.226562 241.609375 L 41.226562 217.007812 " fill-opacity="1" fill-rule="nonzero"/><path stroke-linecap="round" transform="matrix(-0.062982, 0, 0, -0.0632062, 253.021629, 314.535447)" fill="none" stroke-linejoin="round" d="M 3321.728231 1153.780073 L 3362.78658 1153.780073 L 3362.78658 1543.007021 L 3321.728231 1543.007021 Z M 3321.728231 1153.780073 " stroke="#181821" stroke-width="28" stroke-opacity="1" stroke-miterlimit="10"/><path fill="#d9d9d9" d="M 156.683594 127.828125 L 149.265625 141.242188 L 139.210938 135.644531 L 141.136719 117.835938 L 156.683594 127.828125 " fill-opacity="1" fill-rule="nonzero"/><path stroke-linecap="round" transform="matrix(-0.062982, 0, 0, -0.0632062, 253.021629, 314.535447)" fill="none" stroke-linejoin="round" d="M 1529.611895 2953.939258 L 1647.391058 2741.712307 L 1807.034853 2830.274107 L 1776.458166 3112.027942 Z M 1529.611895 2953.939258 " stroke="#181821" stroke-width="28" stroke-opacity="1" stroke-miterlimit="10"/><path fill="#d9d9d9" d="M 124.355469 136.054688 C 121.921875 130.417969 123.554688 123.640625 128.675781 119.804688 C 134.652344 115.320312 143.125 116.550781 147.59375 122.554688 C 147.660156 122.640625 147.722656 122.734375 147.789062 122.828125 C 147.726562 123.0625 147.671875 123.300781 147.636719 123.554688 C 146.777344 129.496094 145.921875 135.4375 145.0625 141.375 C 144.996094 141.429688 144.925781 141.484375 144.851562 141.542969 C 142.742188 143.121094 140.328125 143.988281 137.886719 144.191406 L 124.355469 136.054688 " fill-opacity="1" fill-rule="nonzero"/><path stroke-linecap="round" transform="matrix(-0.062982, 0, 0, -0.0632062, 253.021629, 314.535447)" fill="none" stroke-linejoin="round" d="M 2042.903288 2823.784931 C 2081.542792 2912.964748 2055.617731 3020.190653 1974.307314 3080.879898 C 1879.414149 3151.828221 1744.889133 3132.360693 1673.936336 3037.371519 C 1672.881967 3036.011882 1671.88962 3034.528642 1670.835252 3033.045402 C 1671.827599 3029.337301 1672.695902 3025.567399 1673.254097 3021.55029 C 1686.898866 2927.549943 1700.481613 2833.549595 1714.126382 2739.61105 C 1715.18075 2738.745826 1716.29714 2737.880603 1717.475552 2736.953578 C 1750.967257 2711.985701 1789.296653 2698.265729 1828.060201 2695.052042 Z M 2042.903288 2823.784931 " stroke="#181821" stroke-width="28" stroke-opacity="1" stroke-miterlimit="10"/><path fill="#d9d9d9" d="M 124.355469 136.054688 C 122.46875 131.683594 123.027344 126.628906 125.761719 122.785156 L 146.113281 134.121094 C 145.761719 136.539062 145.414062 138.957031 145.0625 141.375 C 144.996094 141.429688 144.925781 141.484375 144.851562 141.542969 C 142.742188 143.121094 140.328125 143.988281 137.886719 144.191406 L 124.355469 136.054688 " fill-opacity="1" fill-rule="nonzero"/><path stroke-linecap="round" transform="matrix(-0.062982, 0, 0, -0.0632062, 253.021629, 314.535447)" fill="none" stroke-linejoin="round" d="M 2042.903288 2823.784931 C 2072.859757 2892.941005 2063.990658 2972.912372 2020.575484 3033.72522 L 1697.442551 2854.37676 C 1703.024502 2816.121523 1708.544431 2777.866286 1714.126382 2739.61105 C 1715.18075 2738.745826 1716.29714 2737.880603 1717.475552 2736.953578 C 1750.967257 2711.985701 1789.296653 2698.265729 1828.060201 2695.052042 Z M 2042.903288 2823.784931 " stroke="#181821" stroke-width="28" stroke-opacity="1" stroke-miterlimit="10"/><path fill="#d9d9d9" d="M 92.070312 150.082031 L 96.3125 155.78125 L 78.195312 169.363281 L 73.953125 163.664062 L 92.070312 150.082031 " fill-opacity="1" fill-rule="nonzero"/><path stroke-linecap="round" transform="matrix(-0.062982, 0, 0, -0.0632062, 253.021629, 314.535447)" fill="none" stroke-linejoin="round" d="M 2555.512442 2601.855116 L 2488.156902 2511.686473 L 2775.813436 2296.802049 L 2843.168977 2386.970693 Z M 2555.512442 2601.855116 " stroke="#181821" stroke-width="28" stroke-opacity="1" stroke-miterlimit="10"/><path fill="#d9d9d9" d="M 71.539062 160.421875 L 62.882812 166.910156 L 71.957031 179.097656 L 80.613281 172.609375 L 71.539062 160.421875 " fill-opacity="1" fill-rule="nonzero"/><path stroke-linecap="round" transform="matrix(-0.062982, 0, 0, -0.0632062, 253.021629, 314.535447)" fill="none" stroke-linejoin="round" d="M 2881.498372 2438.266083 L 3018.938407 2335.613501 L 2874.862053 2142.792276 L 2737.422018 2245.444858 Z M 2881.498372 2438.266083 " stroke="#181821" stroke-width="28" stroke-opacity="1" stroke-miterlimit="10"/><path fill="#d9d9d9" d="M 64.15625 162.15625 L 69.722656 157.980469 L 82.425781 175.050781 L 76.859375 179.222656 L 64.15625 162.15625 " fill-opacity="1" fill-rule="nonzero"/><path stroke-linecap="round" transform="matrix(-0.062982, 0, 0, -0.0632062, 253.021629, 314.535447)" fill="none" stroke-linejoin="round" d="M 2998.719341 2410.826139 L 2910.338452 2476.89213 L 2708.643961 2206.818811 L 2797.024849 2140.814622 Z M 2998.719341 2410.826139 " stroke="#181821" stroke-width="28" stroke-opacity="1" stroke-miterlimit="10"/><path fill="#d9d9d9" d="M 67.027344 166.015625 L 64.15625 162.15625 L 69.722656 157.980469 L 72.59375 161.839844 L 67.027344 166.015625 " fill-opacity="1" fill-rule="nonzero"/><path stroke-linecap="round" transform="matrix(-0.062982, 0, 0, -0.0632062, 253.021629, 314.535447)" fill="none" stroke-linejoin="round" d="M 2953.133409 2349.766085 L 2998.719341 2410.826139 L 2910.338452 2476.89213 L 2864.75252 2415.832075 Z M 2953.133409 2349.766085 " stroke="#181821" stroke-width="28" stroke-opacity="1" stroke-miterlimit="10"/><path fill="#d9d9d9" d="M 79.402344 170.984375 L 82.425781 175.050781 L 76.859375 179.222656 L 73.835938 175.15625 L 79.402344 170.984375 " fill-opacity="1" fill-rule="nonzero"/><path stroke-linecap="round" transform="matrix(-0.062982, 0, 0, -0.0632062, 253.021629, 314.535447)" fill="none" stroke-linejoin="round" d="M 2756.648738 2271.154354 L 2708.643961 2206.818811 L 2797.024849 2140.814622 L 2845.029627 2205.150166 Z M 2756.648738 2271.154354 " stroke="#181821" stroke-width="28" stroke-opacity="1" stroke-miterlimit="10"/><path fill="#d9d9d9" d="M 55.5 168.644531 L 61.070312 164.46875 L 73.769531 181.535156 L 68.203125 185.707031 L 55.5 168.644531 " fill-opacity="1" fill-rule="nonzero"/><path stroke-linecap="round" transform="matrix(-0.062982, 0, 0, -0.0632062, 253.021629, 314.535447)" fill="none" stroke-linejoin="round" d="M 3136.159375 2308.173558 L 3047.716465 2374.239548 L 2846.083995 2104.228031 L 2934.464884 2038.223842 Z M 3136.159375 2308.173558 " stroke="#181821" stroke-width="28" stroke-opacity="1" stroke-miterlimit="10"/><path fill="#d9d9d9" d="M 57.070312 167.46875 L 69.773438 184.53125 L 68.203125 185.707031 L 55.5 168.644531 L 57.070312 167.46875 " fill-opacity="1" fill-rule="nonzero"/><path stroke-linecap="round" transform="matrix(-0.062982, 0, 0, -0.0632062, 253.021629, 314.535447)" fill="none" stroke-linejoin="round" d="M 3111.226661 2326.775862 L 2909.53217 2056.826146 L 2934.464884 2038.223842 L 3136.159375 2308.173558 Z M 3111.226661 2326.775862 " stroke="#181821" stroke-width="28" stroke-opacity="1" stroke-miterlimit="10"/><path fill="#d9d9d9" d="M 96.3125 155.777344 L 101.839844 156.21875 L 135.851562 130.722656 L 127.234375 119.140625 L 124.355469 121.300781 L 93.449219 144.464844 L 92.070312 150.085938 L 96.3125 155.777344 " fill-opacity="1" fill-rule="nonzero"/><path stroke-linecap="round" transform="matrix(-0.062982, 0, 0, -0.0632062, 253.021629, 314.535447)" fill="none" stroke-linejoin="round" d="M 2488.156902 2511.748274 L 2400.39623 2504.764685 L 1860.373494 2908.144217 L 1997.193312 3091.386183 L 2042.903288 3057.209857 L 2533.61879 2690.725925 L 2555.512442 2601.793315 Z M 2488.156902 2511.748274 " stroke="#181821" stroke-width="28" stroke-opacity="1" stroke-miterlimit="10"/><path fill="#d9d9d9" d="M 51.449219 192.964844 L 65.667969 182.304688 L 58.035156 172.046875 L 43.8125 182.707031 L 51.449219 192.964844 " fill-opacity="1" fill-rule="nonzero"/><path stroke-linecap="round" transform="matrix(-0.062982, 0, 0, -0.0632062, 253.021629, 314.535447)" fill="none" stroke-linejoin="round" d="M 3200.475853 1923.39633 L 2974.716952 2092.053101 L 3095.907307 2254.344299 L 3321.728231 2085.687528 Z M 3200.475853 1923.39633 " stroke="#181821" stroke-width="28" stroke-opacity="1" stroke-miterlimit="10"/><path fill="#d9d9d9" d="M 47.863281 179.671875 L 55.5 189.929688 L 51.449219 192.964844 L 43.8125 182.707031 L 47.863281 179.671875 " fill-opacity="1" fill-rule="nonzero"/><path stroke-linecap="round" transform="matrix(-0.062982, 0, 0, -0.0632062, 253.021629, 314.535447)" fill="none" stroke-linejoin="round" d="M 3257.411752 2133.707429 L 3136.159375 1971.416231 L 3200.475853 1923.39633 L 3321.728231 2085.687528 Z M 3257.411752 2133.707429 " stroke="#181821" stroke-width="28" stroke-opacity="1" stroke-miterlimit="10"/><path stroke-linecap="round" transform="matrix(-0.062982, 0, 0, -0.0632062, 253.021629, 314.535447)" fill="none" stroke-linejoin="round" d="M 1977.842549 2820.385839 L 2152.743676 2785.838702 L 2427.313637 2584.921457 L 2374.657234 2523.923204 " stroke="#181821" stroke-width="28" stroke-opacity="1" stroke-miterlimit="10"/><path stroke-linecap="round" transform="matrix(-0.062982, 0, 0, -0.0632062, 253.021629, 314.535447)" fill="none" stroke-linejoin="round" d="M 2651.087845 2530.41238 L 2581.995698 2441.603374 " stroke="#181821" stroke-width="28" stroke-opacity="1" stroke-miterlimit="10"/><path stroke-linecap="round" transform="matrix(-0.062982, 0, 0, -0.0632062, 253.021629, 314.535447)" fill="none" stroke-linejoin="round" d="M 2744.49249 2460.885496 L 2675.338321 2372.014688 " stroke="#181821" stroke-width="28" stroke-opacity="1" stroke-miterlimit="10"/><path stroke-linecap="round" transform="matrix(-0.062982, 0, 0, -0.0632062, 253.021629, 314.535447)" fill="none" stroke-linejoin="round" d="M 2533.61879 2690.725925 L 2401.88475 2667.179487 L 1994.52638 2984.345682 L 2042.903288 3057.209857 Z M 2533.61879 2690.725925 " stroke="#181821" stroke-width="28" stroke-opacity="1" stroke-miterlimit="10"/><path stroke-linecap="round" transform="matrix(-0.062982, 0, 0, -0.0632062, 253.021629, 314.535447)" fill="none" stroke-linejoin="round" d="M 1730.189996 3047.197985 C 1730.189996 3047.197985 1774.907625 3093.178431 1855.03963 3091.386183 " stroke="#181821" stroke-width="28" stroke-opacity="1" stroke-miterlimit="10"/><path stroke-linecap="round" transform="matrix(-0.062982, 0, 0, -0.0632062, 253.021629, 314.535447)" fill="none" stroke-linejoin="round" d="M 3104.590342 2192.789831 L 3210.585387 2116.835572 " stroke="#181821" stroke-width="28" stroke-opacity="1" stroke-miterlimit="10"/><path fill="#d9d9d9" d="M 199.414062 165.417969 C 199.449219 165.078125 200.273438 156.992188 193.367188 151.859375 C 187.558594 147.539062 181.601562 150.171875 179.265625 152.167969 L 181.96875 155.355469 L 180.613281 153.761719 L 181.957031 155.363281 C 182.398438 155 186.390625 151.882812 190.886719 155.226562 C 195.878906 158.9375 195.273438 164.890625 195.265625 164.949219 L 199.414062 165.417969 " fill-opacity="1" fill-rule="nonzero"/><path stroke-linecap="round" transform="matrix(-0.062982, 0, 0, -0.0632062, 253.021629, 314.535447)" fill="none" stroke-linejoin="round" d="M 851.156778 2359.221741 C 850.598583 2364.598487 837.512009 2492.527954 947.166333 2573.735354 C 1039.392566 2642.088007 1133.975622 2600.433678 1171.064584 2568.853022 L 1128.145584 2518.422855 L 1149.667106 2543.637939 L 1128.331649 2518.299252 C 1121.3232 2524.046808 1057.937047 2573.364544 986.550098 2520.462311 C 907.286395 2461.75072 916.899755 2367.564967 917.023798 2366.637942 Z M 851.156778 2359.221741 " stroke="#181821" stroke-width="28" stroke-opacity="1" stroke-miterlimit="10"/><path fill="#d9d9d9" d="M 196.371094 169.539062 L 194.714844 165.695312 C 194.496094 165.785156 189.105469 167.992188 184.167969 164.320312 C 179.675781 160.980469 181.484375 156.238281 181.703125 155.707031 L 177.871094 154.054688 C 176.648438 156.878906 175.875 163.363281 181.683594 167.683594 C 188.589844 172.816406 196.054688 169.675781 196.371094 169.539062 " fill-opacity="1" fill-rule="nonzero"/><path stroke-linecap="round" transform="matrix(-0.062982, 0, 0, -0.0632062, 253.021629, 314.535447)" fill="none" stroke-linejoin="round" d="M 899.471664 2294.020974 L 925.768855 2354.833822 C 929.242069 2353.412384 1014.831982 2318.494437 1093.227381 2376.588012 C 1164.552308 2429.428444 1135.836272 2504.455677 1132.363058 2512.860705 L 1193.206323 2539.002813 C 1212.619107 2494.320202 1224.899399 2391.729422 1132.673167 2323.37677 C 1023.018843 2242.169369 904.49542 2291.857915 899.471664 2294.020974 Z M 899.471664 2294.020974 " stroke="#181821" stroke-width="28" stroke-opacity="1" stroke-miterlimit="10"/><path fill="#d9d9d9" d="M 149.332031 142.621094 L 159.851562 128.371094 L 167.722656 133.710938 L 157.203125 147.960938 L 149.332031 142.621094 " fill-opacity="1" fill-rule="nonzero"/><path stroke-linecap="round" transform="matrix(-0.062982, 0, 0, -0.0632062, 253.021629, 314.535447)" fill="none" stroke-linejoin="round" d="M 1646.33669 2719.896315 L 1479.312315 2945.348825 L 1354.338638 2860.865936 L 1521.363012 2635.413426 Z M 1646.33669 2719.896315 " stroke="#181821" stroke-width="28" stroke-opacity="1" stroke-miterlimit="10"/><path fill="#d9d9d9" d="M 171.339844 152.1875 L 173.457031 149.316406 L 173.75 148.921875 L 175.871094 146.054688 L 174.726562 138.914062 L 167.722656 133.710938 L 162.609375 140.636719 L 162.316406 141.035156 L 157.203125 147.960938 L 164.203125 153.167969 L 171.339844 152.1875 " fill-opacity="1" fill-rule="nonzero"/><path stroke-linecap="round" transform="matrix(-0.062982, 0, 0, -0.0632062, 253.021629, 314.535447)" fill="none" stroke-linejoin="round" d="M 1296.906566 2568.544014 L 1263.290817 2613.968245 L 1258.639191 2620.210214 L 1224.961421 2665.572643 L 1243.133772 2778.546105 L 1354.338638 2860.865936 L 1435.525012 2751.291566 L 1440.176638 2744.987795 L 1521.363012 2635.413426 L 1410.220168 2553.031793 Z M 1296.906566 2568.544014 " stroke="#181821" stroke-width="28" stroke-opacity="1" stroke-miterlimit="10"/><path fill="#d9d9d9" d="M 180.785156 157.140625 L 183.339844 153.675781 L 174.882812 147.390625 L 172.324219 150.851562 L 180.785156 157.140625 " fill-opacity="1" fill-rule="nonzero"/><path stroke-linecap="round" transform="matrix(-0.062982, 0, 0, -0.0632062, 253.021629, 314.535447)" fill="none" stroke-linejoin="round" d="M 1146.938152 2490.17949 L 1106.375976 2544.997576 L 1240.652905 2644.43647 L 1281.277103 2589.680186 Z M 1146.938152 2490.17949 " stroke="#181821" stroke-width="28" stroke-opacity="1" stroke-miterlimit="10"/><path fill="#d9d9d9" d="M 138.464844 131.921875 C 138.464844 138.980469 144.167969 144.707031 151.203125 144.707031 C 158.238281 144.707031 163.945312 138.980469 163.945312 131.921875 C 163.945312 124.863281 158.238281 119.140625 151.203125 119.140625 C 144.167969 119.140625 138.464844 124.863281 138.464844 131.921875 " fill-opacity="1" fill-rule="nonzero"/><path stroke-linecap="round" transform="matrix(-0.062982, 0, 0, -0.0632062, 253.021629, 314.535447)" fill="none" stroke-linejoin="round" d="M 1818.880993 2889.171103 C 1818.880993 2777.495476 1728.329346 2686.894221 1616.628307 2686.894221 C 1504.927268 2686.894221 1414.313599 2777.495476 1414.313599 2889.171103 C 1414.313599 3000.846729 1504.927268 3091.386183 1616.628307 3091.386183 C 1728.329346 3091.386183 1818.880993 3000.846729 1818.880993 2889.171103 Z M 1818.880993 2889.171103 " stroke="#181821" stroke-width="28" stroke-opacity="1" stroke-miterlimit="10"/><path fill="#d9d9d9" d="M 155.53125 139.445312 L 159.851562 131.921875 L 155.53125 124.40625 L 146.878906 124.40625 L 142.550781 131.921875 L 146.878906 139.445312 L 155.53125 139.445312 " fill-opacity="1" fill-rule="nonzero"/><path stroke-linecap="round" transform="matrix(-0.062982, 0, 0, -0.0632062, 253.021629, 314.535447)" fill="none" stroke-linejoin="round" d="M 1547.908289 2770.141077 L 1479.312315 2889.171103 L 1547.908289 3008.077525 L 1685.286302 3008.077525 L 1754.00632 2889.171103 L 1685.286302 2770.141077 Z M 1547.908289 2770.141077 " stroke="#181821" stroke-width="28" stroke-opacity="1" stroke-miterlimit="10"/><path stroke-linecap="butt" transform="matrix(0.914059, 0, 0, 0.914059, 128.27547, 179.256785)" fill="none" stroke-linejoin="miter" d="M 18.651686 22.001199 L 8.155924 22.001199 L 8.155924 6.313111 L 18.651686 6.313111 C 22.942299 6.313111 26.032053 6.911404 27.912401 8.116536 C 29.425227 9.086625 30.288478 10.402869 30.502154 12.073815 C 30.596171 12.796039 30.64318 13.492623 30.64318 14.159292 C 30.64318 14.825961 30.600445 15.518271 30.506427 16.244769 C 30.416683 16.971267 30.173093 17.672124 29.779929 18.355887 C 29.386765 19.035377 28.762831 19.650763 27.903854 20.197774 C 27.04915 20.744784 25.873933 21.180683 24.386748 21.509744 C 22.89529 21.834531 20.985027 22.001199 18.651686 22.001199 Z M 18.027752 18.120844 C 21.373918 18.120844 23.262813 17.274687 23.702985 15.582373 C 23.81837 15.108013 23.8782 14.633652 23.8782 14.159292 C 23.8782 13.680658 23.81837 13.206297 23.694438 12.73621 C 23.57478 12.266123 23.322642 11.838771 22.929478 11.454154 C 22.540588 11.073811 21.955116 10.766118 21.177336 10.535348 C 20.395282 10.308851 19.34827 10.193466 18.027752 10.193466 L 14.737143 10.193466 L 14.737143 18.120844 Z M 42.203048 22.338807 C 38.378249 22.338807 35.685932 21.543932 34.126097 19.954183 C 32.814127 18.620845 32.156005 16.693488 32.156005 14.172112 L 38.737224 14.172112 C 38.737224 15.266133 38.925259 16.129384 39.297055 16.761865 C 39.826971 17.676398 40.79706 18.129391 42.203048 18.129391 C 43.62613 18.129391 44.600492 17.676398 45.121861 16.761865 C 45.493657 16.108016 45.681692 15.244765 45.681692 14.172112 L 45.681692 6.321658 L 52.262911 6.321658 L 52.262911 14.257583 C 52.262911 16.723403 51.609063 18.620845 50.305639 19.954183 C 48.737258 21.543932 46.036394 22.338807 42.203048 22.338807 Z M 63.596283 22.338807 C 61.476617 22.338807 59.76721 22.11231 58.46806 21.655044 C 57.173184 21.202051 56.181728 20.573843 55.506512 19.774695 C 54.827022 18.975547 54.374029 18.056741 54.138986 17.014002 L 61.126189 17.014002 C 61.643285 17.757594 62.468074 18.129391 63.596283 18.129391 C 64.724492 18.129391 65.549281 17.757594 66.066377 17.014002 C 66.109112 16.941352 66.130479 16.87725 66.130479 16.81742 C 66.130479 16.620838 65.874068 16.475539 65.352699 16.377248 C 64.83133 16.274683 64.053549 16.202034 63.015084 16.150751 C 61.711661 16.090922 60.339861 15.95417 58.903959 15.73622 C 55.707367 15.240492 54.104798 13.954163 54.104798 11.877233 C 54.104798 11.702018 54.117618 11.513984 54.138986 11.317402 C 54.374029 10.274663 54.827022 9.355857 55.506512 8.556709 C 56.181728 7.761834 57.173184 7.133627 58.46806 6.67636 C 59.76721 6.223367 61.476617 5.992597 63.596283 5.992597 C 65.715948 5.992597 67.425356 6.223367 68.724505 6.67636 C 70.019381 7.133627 71.006564 7.761834 71.686054 8.556709 C 72.365543 9.355857 72.818536 10.274663 73.05358 11.317402 L 66.066377 11.317402 C 65.549281 10.573809 64.724492 10.202013 63.596283 10.202013 C 62.468074 10.202013 61.643285 10.573809 61.126189 11.317402 C 61.087727 11.377231 61.070633 11.432787 61.070633 11.484069 C 61.070633 11.659283 61.318497 11.787489 61.818499 11.872959 C 62.318501 11.954156 63.053546 12.026806 64.027908 12.082362 C 65.00227 12.142191 66.036462 12.236208 67.13903 12.368687 C 68.237324 12.501166 69.267242 12.727663 70.228784 13.05245 C 71.186052 13.377238 71.933918 13.855872 72.472381 14.488353 C 72.89546 14.975534 73.109136 15.595194 73.109136 16.347333 C 73.109136 16.561009 73.087768 16.783232 73.05358 17.014002 C 72.818536 18.056741 72.365543 18.975547 71.686054 19.774695 C 71.006564 20.573843 70.019381 21.202051 68.724505 21.655044 C 67.425356 22.11231 65.715948 22.338807 63.596283 22.338807 Z M 85.831401 22.338807 C 81.951046 22.338807 79.100609 21.539659 77.271543 19.945636 C 75.651879 18.539648 74.844184 16.612291 74.844184 14.172112 C 74.844184 11.731933 75.651879 9.804576 77.271543 8.390041 C 79.100609 6.800292 81.951046 6.005418 85.831401 6.005418 C 88.104913 6.005418 89.985261 6.266103 91.472446 6.787472 C 92.95963 7.308841 94.11348 8.022519 94.938269 8.924231 C 95.758785 9.830217 96.305795 10.864409 96.575027 12.031079 L 89.6562 12.031079 C 88.96389 10.813127 87.690381 10.202013 85.831401 10.202013 C 84.241652 10.202013 83.070708 10.663553 82.322842 11.58236 C 81.724549 12.308858 81.425403 13.172109 81.425403 14.172112 C 81.425403 15.172116 81.724549 16.035366 82.322842 16.761865 C 83.070708 17.680671 84.241652 18.142211 85.831401 18.142211 C 87.690381 18.142211 88.96389 17.526824 89.6562 16.304598 L 96.575027 16.304598 C 96.305795 17.475542 95.758785 18.514007 94.938269 19.419993 C 94.11348 20.321706 92.95963 21.035383 91.472446 21.556753 C 89.985261 22.078122 88.104913 22.338807 85.831401 22.338807 Z M 118.0751 22.001199 L 99.186147 22.001199 L 99.186147 6.313111 L 117.211849 6.313111 L 117.211849 10.193466 L 105.767366 10.193466 L 105.767366 12.65074 L 115.442612 12.65074 L 115.442612 15.672117 L 105.767366 15.672117 L 105.767366 18.120844 L 118.0751 18.120844 Z M 118.0751 22.001199 " stroke="#ffffff" stroke-width="3.44257" stroke-opacity="1" stroke-miterlimit="4"/><g fill="#000000" fill-opacity="1"><g transform="translate(134.131163, 199.366092)"><g><path d="M 11.1875 0 L 1.59375 0 L 1.59375 -14.34375 L 11.1875 -14.34375 C 15.113281 -14.34375 17.9375 -13.789062 19.65625 -12.6875 C 21.039062 -11.800781 21.832031 -10.597656 22.03125 -9.078125 C 22.113281 -8.410156 22.15625 -7.773438 22.15625 -7.171875 C 22.15625 -6.554688 22.113281 -5.914062 22.03125 -5.25 C 21.945312 -4.59375 21.722656 -3.953125 21.359375 -3.328125 C 21.003906 -2.710938 20.4375 -2.15625 19.65625 -1.65625 C 18.875 -1.15625 17.800781 -0.753906 16.4375 -0.453125 C 15.070312 -0.148438 13.320312 0 11.1875 0 Z M 10.625 -3.546875 C 13.6875 -3.546875 15.414062 -4.316406 15.8125 -5.859375 C 15.914062 -6.296875 15.96875 -6.734375 15.96875 -7.171875 C 15.96875 -7.609375 15.910156 -8.039062 15.796875 -8.46875 C 15.691406 -8.894531 15.460938 -9.285156 15.109375 -9.640625 C 14.753906 -9.992188 14.21875 -10.273438 13.5 -10.484375 C 12.789062 -10.691406 11.832031 -10.796875 10.625 -10.796875 L 7.609375 -10.796875 L 7.609375 -3.546875 Z M 10.625 -3.546875 "/></g></g></g><g fill="#000000" fill-opacity="1"><g transform="translate(157.069847, 199.366092)"><g><path d="M 9.78125 0.3125 C 6.28125 0.3125 3.820312 -0.414062 2.40625 -1.875 C 1.195312 -3.09375 0.59375 -4.851562 0.59375 -7.15625 L 6.609375 -7.15625 C 6.609375 -6.15625 6.78125 -5.363281 7.125 -4.78125 C 7.613281 -3.945312 8.5 -3.53125 9.78125 -3.53125 C 11.082031 -3.53125 11.972656 -3.945312 12.453125 -4.78125 C 12.796875 -5.382812 12.96875 -6.175781 12.96875 -7.15625 L 12.96875 -14.328125 L 18.984375 -14.328125 L 18.984375 -7.078125 C 18.984375 -4.828125 18.382812 -3.09375 17.1875 -1.875 C 15.757812 -0.414062 13.289062 0.3125 9.78125 0.3125 Z M 9.78125 0.3125 "/></g></g></g><g fill="#000000" fill-opacity="1"><g transform="translate(176.932731, 199.366092)"><g><path d="M 9.46875 0.3125 C 7.53125 0.3125 5.96875 0.101562 4.78125 -0.3125 C 3.601562 -0.726562 2.703125 -1.300781 2.078125 -2.03125 C 1.460938 -2.757812 1.046875 -3.601562 0.828125 -4.5625 L 7.21875 -4.5625 C 7.6875 -3.875 8.4375 -3.53125 9.46875 -3.53125 C 10.507812 -3.53125 11.265625 -3.875 11.734375 -4.5625 C 11.773438 -4.625 11.796875 -4.679688 11.796875 -4.734375 C 11.796875 -4.910156 11.554688 -5.046875 11.078125 -5.140625 C 10.597656 -5.234375 9.882812 -5.300781 8.9375 -5.34375 C 7.75 -5.394531 6.5 -5.523438 5.1875 -5.734375 C 2.257812 -6.179688 0.796875 -7.351562 0.796875 -9.25 C 0.796875 -9.414062 0.804688 -9.585938 0.828125 -9.765625 C 1.046875 -10.710938 1.460938 -11.550781 2.078125 -12.28125 C 2.703125 -13.007812 3.601562 -13.582031 4.78125 -14 C 5.96875 -14.414062 7.53125 -14.625 9.46875 -14.625 C 11.414062 -14.625 12.976562 -14.414062 14.15625 -14 C 15.34375 -13.582031 16.242188 -13.007812 16.859375 -12.28125 C 17.484375 -11.550781 17.90625 -10.710938 18.125 -9.765625 L 11.734375 -9.765625 C 11.265625 -10.441406 10.507812 -10.78125 9.46875 -10.78125 C 8.4375 -10.78125 7.6875 -10.441406 7.21875 -9.765625 C 7.1875 -9.710938 7.171875 -9.660156 7.171875 -9.609375 C 7.171875 -9.453125 7.394531 -9.332031 7.84375 -9.25 C 8.300781 -9.175781 8.972656 -9.113281 9.859375 -9.0625 C 10.753906 -9.007812 11.703125 -8.921875 12.703125 -8.796875 C 13.710938 -8.679688 14.65625 -8.472656 15.53125 -8.171875 C 16.40625 -7.878906 17.09375 -7.441406 17.59375 -6.859375 C 17.976562 -6.421875 18.171875 -5.859375 18.171875 -5.171875 C 18.171875 -4.972656 18.15625 -4.769531 18.125 -4.5625 C 17.90625 -3.601562 17.484375 -2.757812 16.859375 -2.03125 C 16.242188 -1.300781 15.34375 -0.726562 14.15625 -0.3125 C 12.976562 0.101562 11.414062 0.3125 9.46875 0.3125 Z M 9.46875 0.3125 "/></g></g></g><g fill="#000000" fill-opacity="1"><g transform="translate(195.886855, 199.366092)"><g><path d="M 10.84375 0.3125 C 7.300781 0.3125 4.691406 -0.414062 3.015625 -1.875 C 1.535156 -3.164062 0.796875 -4.925781 0.796875 -7.15625 C 0.796875 -9.382812 1.535156 -11.144531 3.015625 -12.4375 C 4.691406 -13.894531 7.300781 -14.625 10.84375 -14.625 C 12.925781 -14.625 14.644531 -14.382812 16 -13.90625 C 17.363281 -13.425781 18.421875 -12.773438 19.171875 -11.953125 C 19.921875 -11.128906 20.421875 -10.179688 20.671875 -9.109375 L 14.34375 -9.109375 C 13.707031 -10.222656 12.539062 -10.78125 10.84375 -10.78125 C 9.394531 -10.78125 8.328125 -10.363281 7.640625 -9.53125 C 7.085938 -8.863281 6.8125 -8.070312 6.8125 -7.15625 C 6.8125 -6.238281 7.085938 -5.445312 7.640625 -4.78125 C 8.328125 -3.945312 9.394531 -3.53125 10.84375 -3.53125 C 12.539062 -3.53125 13.707031 -4.085938 14.34375 -5.203125 L 20.671875 -5.203125 C 20.421875 -4.128906 19.921875 -3.179688 19.171875 -2.359375 C 18.421875 -1.535156 17.363281 -0.882812 16 -0.40625 C 14.644531 0.0703125 12.925781 0.3125 10.84375 0.3125 Z M 10.84375 0.3125 "/></g></g></g><g fill="#000000" fill-opacity="1"><g transform="translate(217.337571, 199.366092)"><g><path d="M 18.875 0 L 1.59375 0 L 1.59375 -14.34375 L 18.078125 -14.34375 L 18.078125 -10.796875 L 7.609375 -10.796875 L 7.609375 -8.546875 L 16.46875 -8.546875 L 16.46875 -5.78125 L 7.609375 -5.78125 L 7.609375 -3.546875 L 18.875 -3.546875 Z M 18.875 0 "/></g></g></g><path stroke-linecap="butt" transform="matrix(0.914059, 0, 0, 0.914059, 79.108535, 192.727723)" fill="none" stroke-linejoin="miter" d="M 5.483843 59.998934 L 19.424061 59.998934 C 20.201842 59.998934 20.817228 59.383547 20.817228 58.605767 L 20.817228 16.614172 C 20.817228 15.819297 20.15056 15.203911 19.368506 15.203911 L 5.428287 15.203911 C 4.633413 15.203911 4.018026 15.819297 4.018026 16.614172 L 4.018026 58.605767 C 4.018026 59.383547 4.701789 59.998934 5.483843 59.998934 Z M 25.077927 59.998934 L 67.069522 59.998934 C 67.847302 59.998934 68.462689 59.383547 68.462689 58.605767 L 68.462689 47.956158 C 68.462689 47.178378 67.791747 46.562991 67.013966 46.562991 L 41.821573 46.562991 C 41.026699 46.562991 40.415585 45.947604 40.415585 45.169824 C 40.415585 44.37495 41.026699 43.759563 41.821573 43.759563 L 64.825925 43.759563 C 65.607978 43.759563 66.223365 43.144176 66.223365 42.366396 L 66.223365 32.840722 C 66.223365 32.058669 65.552423 31.443282 64.770369 31.443282 L 41.821573 31.443282 C 41.026699 31.443282 40.415585 30.827895 40.415585 30.050115 C 40.415585 29.259514 41.026699 28.644127 41.821573 28.644127 L 67.069522 28.644127 C 67.847302 28.644127 68.462689 28.02874 68.462689 27.246686 L 68.462689 16.614172 C 68.462689 15.819297 67.847302 15.203911 67.069522 15.203911 L 25.022371 15.203911 C 24.227496 15.203911 23.61211 15.819297 23.61211 16.614172 L 23.61211 58.605767 C 23.61211 59.383547 24.295873 59.998934 25.077927 59.998934 Z M 81.16786 59.998934 L 95.108078 59.998934 C 95.902953 59.998934 96.51834 59.332265 96.51834 58.550211 L 96.51834 31.729608 C 96.51834 30.939007 97.189282 30.32362 97.967062 30.32362 L 103.569646 30.32362 C 104.351699 30.32362 104.967086 29.708233 104.967086 28.930453 L 104.967086 16.614172 C 104.967086 15.874853 104.351699 15.203911 103.569646 15.203911 L 72.663558 15.152628 C 71.872957 15.152628 71.25757 15.763742 71.25757 16.558616 L 71.25757 28.930453 C 71.25757 29.708233 71.872957 30.32362 72.663558 30.32362 L 78.25332 30.32362 C 79.048195 30.32362 79.719137 30.939007 79.719137 31.729608 L 79.719137 58.605767 C 79.719137 59.383547 80.385806 59.998934 81.16786 59.998934 Z M 109.219237 59.998934 L 151.215106 59.998934 C 151.992886 59.998934 152.608273 59.383547 152.608273 58.605767 L 152.608273 47.956158 C 152.608273 47.178378 151.937331 46.562991 151.15955 46.562991 L 125.967157 46.562991 C 125.172283 46.562991 124.556896 45.947604 124.556896 45.169824 C 124.556896 44.37495 125.172283 43.759563 125.967157 43.759563 L 148.971509 43.759563 C 149.749289 43.759563 150.364676 43.144176 150.364676 42.366396 L 150.364676 32.840722 C 150.364676 32.058669 149.698007 31.443282 148.915953 31.443282 L 125.967157 31.443282 C 125.172283 31.443282 124.556896 30.827895 124.556896 30.050115 C 124.556896 29.259514 125.172283 28.644127 125.967157 28.644127 L 151.215106 28.644127 C 151.992886 28.644127 152.608273 28.02874 152.608273 27.246686 L 152.608273 16.614172 C 152.608273 15.819297 151.992886 15.203911 151.215106 15.203911 L 109.167955 15.203911 C 108.373081 15.203911 107.757694 15.819297 107.757694 16.614172 L 107.757694 58.605767 C 107.757694 59.383547 108.441457 59.998934 109.219237 59.998934 Z M 156.809142 43.199732 L 182.001535 43.199732 C 182.779316 43.199732 183.394702 42.528789 183.394702 41.751009 L 183.394702 33.400553 C 183.394702 32.618499 182.779316 32.003113 182.001535 32.003113 L 156.809142 32.003113 C 156.014268 32.003113 155.398881 32.674055 155.398881 33.451836 L 155.398881 41.806565 C 155.398881 42.584345 156.014268 43.199732 156.809142 43.199732 Z M 187.599845 59.998934 L 219.574312 59.998934 C 226.176898 59.998934 230.988881 55.186952 230.988881 48.571545 L 230.988881 42.31084 C 230.988881 35.695433 226.176898 30.883451 219.574312 30.883451 L 204.399047 30.883451 C 203.608446 30.883451 202.993059 30.268064 202.993059 29.490284 C 202.993059 28.695409 203.608446 28.080023 204.399047 28.080023 L 229.59144 28.080023 C 230.373494 28.080023 230.988881 27.464636 230.988881 26.686855 L 230.988881 16.614172 C 230.988881 15.819297 230.373494 15.203911 229.59144 15.203911 L 197.621246 15.203911 C 191.01866 15.203911 186.193857 20.015893 186.193857 26.6313 L 186.193857 32.909099 C 186.193857 39.507412 191.01866 44.319394 197.621246 44.319394 L 212.792238 44.319394 C 213.570018 44.319394 214.185405 44.934781 214.185405 45.729655 C 214.185405 46.507435 213.570018 47.122822 212.792238 47.122822 L 187.599845 47.122822 C 186.809244 47.122822 186.193857 47.738209 186.193857 48.515989 L 186.193857 58.605767 C 186.193857 59.383547 186.809244 59.998934 187.599845 59.998934 Z M 235.241032 59.998934 L 249.185523 59.998934 C 249.963304 59.998934 250.57869 59.332265 250.57869 58.550211 L 250.57869 49.639925 C 250.57869 48.857871 251.194077 48.242484 251.984678 48.242484 L 274.993303 48.242484 C 275.771083 48.242484 276.38647 47.627097 276.38647 46.836496 L 276.38647 34.520215 C 276.38647 33.742435 275.715528 33.127048 274.937747 33.127048 L 251.984678 33.127048 C 251.194077 33.127048 250.57869 32.511662 250.57869 31.729608 C 250.57869 30.939007 251.194077 30.32362 251.984678 30.32362 L 277.232627 30.32362 C 278.014681 30.32362 278.630068 29.708233 278.630068 28.930453 L 278.630068 16.614172 C 278.630068 15.819297 278.014681 15.203911 277.232627 15.203911 L 235.185476 15.203911 C 234.394875 15.203911 233.779488 15.819297 233.779488 16.614172 L 233.779488 58.605767 C 233.779488 59.383547 234.463251 59.998934 235.241032 59.998934 Z M 235.241032 59.998934 " stroke="#ffffff" stroke-width="11.269819" stroke-opacity="1" stroke-miterlimit="4"/><g fill="#05bcdd" fill-opacity="1"><g transform="translate(81.507941, 247.571287)"><g><path d="M 2.609375 0 L 15.351562 0 C 16.070312 0 16.632812 -0.5625 16.632812 -1.28125 L 16.632812 -39.664062 C 16.632812 -40.378906 16.019531 -40.941406 15.300781 -40.941406 L 2.558594 -40.941406 C 1.84375 -40.941406 1.28125 -40.378906 1.28125 -39.664062 L 1.28125 -1.28125 C 1.28125 -0.5625 1.894531 0 2.609375 0 Z M 2.609375 0 "/></g></g></g><g fill="#05bcdd" fill-opacity="1"><g transform="translate(99.418476, 247.571287)"><g><path d="M 2.609375 0 L 40.992188 0 C 41.710938 0 42.273438 -0.5625 42.273438 -1.28125 L 42.273438 -11.003906 C 42.273438 -11.71875 41.660156 -12.28125 40.941406 -12.28125 L 17.914062 -12.28125 C 17.195312 -12.28125 16.632812 -12.847656 16.632812 -13.5625 C 16.632812 -14.277344 17.195312 -14.839844 17.914062 -14.839844 L 38.945312 -14.839844 C 39.664062 -14.839844 40.226562 -15.40625 40.226562 -16.121094 L 40.226562 -24.820312 C 40.226562 -25.539062 39.613281 -26.101562 38.894531 -26.101562 L 17.914062 -26.101562 C 17.195312 -26.101562 16.632812 -26.664062 16.632812 -27.378906 C 16.632812 -28.097656 17.195312 -28.660156 17.914062 -28.660156 L 40.992188 -28.660156 C 41.710938 -28.660156 42.273438 -29.222656 42.273438 -29.9375 L 42.273438 -39.664062 C 42.273438 -40.378906 41.710938 -40.941406 40.992188 -40.941406 L 2.558594 -40.941406 C 1.84375 -40.941406 1.28125 -40.378906 1.28125 -39.664062 L 1.28125 -1.28125 C 1.28125 -0.5625 1.894531 0 2.609375 0 Z M 2.609375 0 "/></g></g></g><g fill="#05bcdd" fill-opacity="1"><g transform="translate(142.966651, 247.571287)"><g><path d="M 10.339844 0 L 23.082031 0 C 23.796875 0 24.359375 -0.613281 24.359375 -1.332031 L 24.359375 -25.84375 C 24.359375 -26.5625 24.976562 -27.125 25.691406 -27.125 L 30.808594 -27.125 C 31.527344 -27.125 32.089844 -27.6875 32.089844 -28.402344 L 32.089844 -39.664062 C 32.089844 -40.328125 31.527344 -40.941406 30.808594 -40.941406 L 2.558594 -40.992188 C 1.84375 -40.992188 1.28125 -40.429688 1.28125 -39.714844 L 1.28125 -28.402344 C 1.28125 -27.6875 1.84375 -27.125 2.558594 -27.125 L 7.675781 -27.125 C 8.394531 -27.125 9.007812 -26.5625 9.007812 -25.84375 L 9.007812 -1.28125 C 9.007812 -0.5625 9.621094 0 10.339844 0 Z M 10.339844 0 "/></g></g></g><g fill="#05bcdd" fill-opacity="1"><g transform="translate(176.33141, 247.571287)"><g><path d="M 2.609375 0 L 40.992188 0 C 41.710938 0 42.273438 -0.5625 42.273438 -1.28125 L 42.273438 -11.003906 C 42.273438 -11.71875 41.660156 -12.28125 40.941406 -12.28125 L 17.914062 -12.28125 C 17.195312 -12.28125 16.632812 -12.847656 16.632812 -13.5625 C 16.632812 -14.277344 17.195312 -14.839844 17.914062 -14.839844 L 38.945312 -14.839844 C 39.664062 -14.839844 40.226562 -15.40625 40.226562 -16.121094 L 40.226562 -24.820312 C 40.226562 -25.539062 39.613281 -26.101562 38.894531 -26.101562 L 17.914062 -26.101562 C 17.195312 -26.101562 16.632812 -26.664062 16.632812 -27.378906 C 16.632812 -28.097656 17.195312 -28.660156 17.914062 -28.660156 L 40.992188 -28.660156 C 41.710938 -28.660156 42.273438 -29.222656 42.273438 -29.9375 L 42.273438 -39.664062 C 42.273438 -40.378906 41.710938 -40.941406 40.992188 -40.941406 L 2.558594 -40.941406 C 1.84375 -40.941406 1.28125 -40.378906 1.28125 -39.664062 L 1.28125 -1.28125 C 1.28125 -0.5625 1.894531 0 2.609375 0 Z M 2.609375 0 "/></g></g></g><g fill="#05bcdd" fill-opacity="1"><g transform="translate(219.879585, 247.571287)"><g><path d="M 2.558594 -15.351562 L 25.589844 -15.351562 C 26.304688 -15.351562 26.867188 -15.96875 26.867188 -16.683594 L 26.867188 -24.308594 C 26.867188 -25.027344 26.304688 -25.589844 25.589844 -25.589844 L 2.558594 -25.589844 C 1.84375 -25.589844 1.28125 -24.976562 1.28125 -24.257812 L 1.28125 -16.632812 C 1.28125 -15.917969 1.84375 -15.351562 2.558594 -15.351562 Z M 2.558594 -15.351562 "/></g></g></g><g fill="#05bcdd" fill-opacity="1"><g transform="translate(248.024695, 247.571287)"><g><path d="M 2.558594 0 L 31.78125 0 C 37.820312 0 42.222656 -4.402344 42.222656 -10.441406 L 42.222656 -16.171875 C 42.222656 -22.210938 37.820312 -26.613281 31.78125 -26.613281 L 17.914062 -26.613281 C 17.195312 -26.613281 16.632812 -27.175781 16.632812 -27.890625 C 16.632812 -28.609375 17.195312 -29.171875 17.914062 -29.171875 L 40.941406 -29.171875 C 41.660156 -29.171875 42.222656 -29.734375 42.222656 -30.449219 L 42.222656 -39.664062 C 42.222656 -40.378906 41.660156 -40.941406 40.941406 -40.941406 L 11.71875 -40.941406 C 5.679688 -40.941406 1.28125 -36.542969 1.28125 -30.503906 L 1.28125 -24.769531 C 1.28125 -18.730469 5.679688 -14.328125 11.71875 -14.328125 L 25.589844 -14.328125 C 26.304688 -14.328125 26.867188 -13.765625 26.867188 -13.050781 C 26.867188 -12.332031 26.304688 -11.769531 25.589844 -11.769531 L 2.558594 -11.769531 C 1.84375 -11.769531 1.28125 -11.207031 1.28125 -10.492188 L 1.28125 -1.28125 C 1.28125 -0.5625 1.84375 0 2.558594 0 Z M 2.558594 0 "/></g></g></g><g fill="#05bcdd" fill-opacity="1"><g transform="translate(291.521696, 247.571287)"><g><path d="M 2.609375 0 L 15.351562 0 C 16.070312 0 16.632812 -0.613281 16.632812 -1.332031 L 16.632812 -9.46875 C 16.632812 -10.183594 17.195312 -10.746094 17.914062 -10.746094 L 38.945312 -10.746094 C 39.664062 -10.746094 40.226562 -11.308594 40.226562 -12.027344 L 40.226562 -23.285156 C 40.226562 -24.003906 39.613281 -24.566406 38.894531 -24.566406 L 17.914062 -24.566406 C 17.195312 -24.566406 16.632812 -25.128906 16.632812 -25.84375 C 16.632812 -26.5625 17.195312 -27.125 17.914062 -27.125 L 40.992188 -27.125 C 41.710938 -27.125 42.273438 -27.6875 42.273438 -28.402344 L 42.273438 -39.664062 C 42.273438 -40.378906 41.710938 -40.941406 40.992188 -40.941406 L 2.558594 -40.941406 C 1.84375 -40.941406 1.28125 -40.378906 1.28125 -39.664062 L 1.28125 -1.28125 C 1.28125 -0.5625 1.894531 0 2.609375 0 Z M 2.609375 0 "/></g></g></g></svg>